<svg width="100%" height="100%" viewBox="0 14 224 224" xmlns="http://www.w3.org/2000/svg" style="fill-rule:evenodd;clip-rule:evenodd;stroke-linejoin:round;stroke-miterlimit:2;">
    <path d="M198.132,202.563C198.252,205.193 198.573,206.196 196.474,209.482C193.524,214.101 187.878,213.355 179.5,213.355C121.118,213.354 121.108,213.376 120.558,213.222C119.316,212.874 119.049,212.8 108.675,202.328C99.86,193.429 61.338,154.902 57.218,150.782C56.174,149.738 45.142,138.704 44.112,137.786C42.601,136.441 42.436,135.267 44.446,135.239C47.89,135.189 47.886,135.331 87.5,135.331C131.801,135.331 131.81,135.313 132.506,135.475C134.46,135.929 136.471,139.075 142.945,145.012C146.087,147.894 178.866,180.923 181.52,183.479C182.254,184.185 182.192,184.237 190.538,192.461C197.423,199.246 197.213,199.523 198.132,202.563Z" class="logo"/>
    <path d="M198.106,50.42C196.608,54.908 196.02,54.633 186.393,64.394C184.433,66.381 173.857,76.868 169.4,81.401C163.093,87.816 152.378,98.426 150.891,99.899C139.189,111.488 137.972,113.309 136.616,113.027C136.302,112.962 136.015,112.902 133.524,110.476C132.592,109.569 132.663,109.501 121.985,99.029C120.21,97.288 120.335,97.191 118.54,95.459C117.523,94.477 117.585,94.427 105.98,83.034C103.954,81.081 104.118,80.912 102.071,78.937C96.405,73.469 87.829,64.665 85.054,61.951C80.406,57.407 69.134,45.989 68.045,44.954C63.914,41.028 63.698,41.138 63.636,40.474C63.525,39.269 65.3,39.305 65.474,39.309C85.613,39.716 187.546,39.115 190.483,39.605C195.217,40.394 198.545,44.503 198.208,49.471C198.186,49.788 198.127,50.102 198.106,50.42Z" class="logo"/>
    <path d="M79.534,81.465C84.793,86.791 84.783,86.796 85.508,87.492C85.876,87.844 89.032,90.873 90.047,91.956C90.995,92.967 91.007,92.952 108.031,109.964C109.286,111.217 109.253,111.229 110.528,112.471C112.942,114.824 112.919,114.834 113.597,115.425C116.37,117.84 112.739,117.767 112.533,117.763C99.125,117.494 28.065,117.776 26.484,117.641C24.705,117.489 24.621,115.719 24.61,115.491C24.606,115.42 24.562,49.794 24.634,48.508C25.184,38.638 35.715,38.952 37.387,39.762C39.184,40.633 44.036,46.229 45.975,48.009C50.145,51.838 49.813,52.158 53.977,56.006C58.451,60.14 58.193,60.373 61.977,64.012C65.555,67.453 65.508,67.476 68.955,71.029C69.31,71.395 69.417,71.279 73.513,75.487C74.656,76.66 74.661,76.647 79.534,81.465Z" class="logo"/>
    <path d="M68.636,187.364C69.403,188.124 74.28,192.859 90.654,209.348C91.462,210.161 92.586,211.182 92.757,211.338C94.243,212.688 93.489,213.618 91.498,213.477C85.295,213.036 34.421,213.777 31.611,213.063C24.715,211.309 24.621,204.446 24.607,203.498C24.528,197.726 24.737,150.665 24.493,146.499C24.485,146.352 24.403,144.964 24.708,144.661C25.32,144.053 26.224,144.656 26.332,144.728C26.8,145.041 26.543,145.291 31.184,149.823C35.965,154.492 48.194,166.848 49.666,168.335C59.126,177.893 59.196,177.797 68.636,187.364Z" class="logo"/>
    <style>
        .logo { fill: #000; }
        @media (prefers-color-scheme: dark) {
            .logo { fill: #FFF; }
        }
    </style>
</svg>
